<svg width="144" height="152" viewBox="0 0 144 152" fill="none" xmlns="http://www.w3.org/2000/svg">
<path d="M42.9645 25.8557L93.4284 18.631C93.8966 18.5827 94.3696 18.6329 94.8172 18.7782C95.2648 18.9236 95.6771 19.1609 96.0276 19.475C96.3804 19.7716 96.6687 20.1373 96.8747 20.5495C97.0808 20.9618 97.2003 21.4118 97.2259 21.872C97.2259 25.3662 97.2259 28.8519 97.2259 32.3461C88.2448 39.3759 80.5231 47.8807 74.3905 57.4974C73.4876 56.6534 72.5931 55.8094 71.7576 54.8895C73.2143 53.7919 74.2913 52.2662 74.8378 50.526C75.1549 49.5237 75.2044 48.4558 74.9813 47.4285C74.694 46.2459 74.2424 45.1095 73.6395 44.0524C73.1325 42.8886 72.4494 41.8097 71.6142 40.8537C71.2603 40.4635 70.8329 40.1472 70.3564 39.9227C69.88 39.6982 69.3639 39.57 68.8378 39.5455C68.2734 39.5241 67.7113 39.628 67.1918 39.8498C66.6724 40.0716 66.2085 40.4058 65.8336 40.8284C65.2547 41.5748 64.9561 42.5007 64.9897 43.4448C65.0143 44.3869 65.2206 45.3155 65.5973 46.1793C66.4034 48.2111 67.386 50.1683 68.534 52.0283C65.6311 53.6656 62.2978 54.324 59.0235 54.7797C52.7006 55.6269 46.2785 55.367 40.0447 54.0117C40.0447 45.6954 40.0447 37.3876 40.0447 29.0883C40.0858 28.2959 40.3986 27.5419 40.9304 26.9532C41.4622 26.3644 42.1805 25.9769 42.9645 25.8557ZM68.2809 33.6206C67.8422 34.1157 67.4575 34.6561 67.1332 35.2326C67.1058 35.2947 67.0649 35.3499 67.0134 35.3942C66.9619 35.4385 66.9012 35.4707 66.8357 35.4885C66.7702 35.5063 66.7015 35.5092 66.6347 35.4971C66.5679 35.4849 66.5047 35.458 66.4496 35.4183C65.9096 35.0891 65.3864 34.7431 64.8463 34.4139C64.1219 35.3487 63.4862 36.3489 62.9475 37.4017L65.5298 39.0391C65.9893 38.5196 66.3937 37.9539 66.7366 37.3511C66.7621 37.2981 66.7985 37.251 66.8433 37.2129C66.8882 37.1748 66.9405 37.1465 66.9969 37.1298C67.0533 37.1131 67.1126 37.1084 67.171 37.116C67.2293 37.1235 67.2854 37.1432 67.3357 37.1738L69.0235 38.1275C69.3091 37.8146 69.5609 37.4722 69.7745 37.1063C70.1796 36.4648 70.6184 35.8234 70.9306 35.1482C70.0614 34.6165 69.1838 34.1101 68.2893 33.6206H68.2809Z" fill="#35BBE3"/>
<path d="M101.572 22.8511C101.806 22.7707 102.055 22.746 102.3 22.779C102.545 22.8119 102.779 22.9017 102.983 23.0411C103.187 23.1804 103.356 23.3655 103.476 23.5817C103.596 23.7978 103.663 24.0389 103.673 24.2859C103.673 40.08 103.651 55.8685 103.606 71.6514C103.653 71.9619 103.631 72.2789 103.54 72.5796C103.45 72.8803 103.293 73.1571 103.083 73.39C102.782 73.6794 102.382 73.841 101.965 73.841C101.548 73.841 101.147 73.6794 100.846 73.39C101.248 73.2713 101.603 73.0303 101.862 72.7006C102.12 72.3708 102.27 71.9687 102.29 71.5501V24.2859C102.293 24.0069 102.229 23.7313 102.104 23.4818C101.98 23.2322 101.797 23.016 101.572 22.8511Z" fill="#35BBE3"/>
<path d="M76.239 61.3208C81.9495 52.4089 89.0327 44.4559 97.2263 37.7562C97.2263 48.8296 97.2263 59.9029 97.2263 70.9593C97.2494 71.5918 97.1439 72.2223 96.9162 72.8128C96.6884 73.4033 96.3432 73.9413 95.9014 74.3944C95.4084 74.9265 94.734 75.2547 94.0111 75.3144H72.2475C69.5696 77.9083 66.8917 80.4966 64.2138 83.0792L60.6273 75.306H43.9354C43.5465 75.3314 43.156 75.3144 42.7708 75.2553C42.2502 75.1502 41.7611 74.9254 41.3423 74.5988C40.9234 74.2721 40.5862 73.8526 40.3573 73.3732C40.0851 72.7973 39.9715 72.1593 40.0282 71.5248C40.0282 66.9588 40.0282 62.3927 40.0282 57.8182C46.9351 59.4836 54.0987 59.7988 61.1252 58.7466C64.5865 58.2901 67.9258 57.1634 70.9564 55.4297C72.5597 57.5228 74.4416 59.3965 76.239 61.3208Z" fill="#35BBE3"/>
<path d="M68.4669 44.3734C68.9675 44.0655 69.5317 43.8758 70.1166 43.8187C70.7016 43.7617 71.2918 43.8388 71.8424 44.0442C72.2349 44.1442 72.5753 44.3883 72.796 44.7279C73.001 45.188 73.031 45.7073 72.8804 46.188C72.6294 47.2378 72.1709 48.2267 71.5317 49.0964C70.8926 49.9662 70.0858 50.6991 69.1589 51.252C68.661 50.5768 68.18 49.8932 67.7159 49.1926C67.2724 48.4489 67.0856 47.58 67.1842 46.7197C67.2068 46.2571 67.3339 45.8056 67.5561 45.3992C67.7783 44.9928 68.0897 44.6421 68.4669 44.3734Z" fill="#35BBE3"/>
<path d="M20.7723 114.534H24.7289V127.34H27.154V114.534H31.0893V112.556H20.7723V114.534ZM43.5219 127.34H46.0746L40.7778 112.534H37.9699L32.6731 127.34H35.2045L36.2681 124.319H42.4583L43.5219 127.34ZM41.7776 122.341H36.9488L39.3739 115.47L41.7776 122.341ZM63.8801 127.34H66.4328L61.136 112.534H58.3281L53.0313 127.34H55.5627L56.6263 124.319H62.8165L63.8801 127.34ZM62.1358 122.341H57.307L59.732 115.47L62.1358 122.341ZM73.5646 112.556H68.7358V127.34H73.5646C78.3083 127.34 81.4141 124.553 81.4141 120.001C81.4141 115.427 78.3083 112.556 73.5646 112.556ZM71.1609 125.362V114.534H73.5646C77.0533 114.534 78.9252 116.619 78.9252 120.001C78.9252 123.362 77.0533 125.362 73.5646 125.362H71.1609ZM83.8175 127.34H86.2425V117.214L90.7735 127.34H92.454L96.9637 117.214V127.34H99.3888V112.556H96.7936L91.6244 124.149L86.434 112.556H83.8175V127.34ZM102.576 127.34H105.001V112.556H102.576V127.34ZM117.906 112.534V123.553L110.61 112.534H108.185V127.34H110.61V116.3L117.906 127.34H120.331V112.534H117.906Z" fill="#35BBE3"/>
<rect x="0.664757" y="0.664757" width="142.358" height="149.805" rx="17.0288" stroke="#35BBE3" stroke-opacity="0.21" stroke-width="1.32951"/>
</svg>
