<svg width="847" height="960" viewBox="0 0 847 960" fill="none" xmlns="http://www.w3.org/2000/svg">
<mask id="mask0_827_11848" style="mask-type:alpha" maskUnits="userSpaceOnUse" x="-1" y="0" width="848" height="972">
<rect x="-1" width="848" height="972" fill="#D9D9D9"/>
</mask>
<g mask="url(#mask0_827_11848)">
<path d="M434.938 936.683C427.639 938.106 420.024 934.502 415.347 928.779C412.978 925.902 411.24 922.488 410.418 918.82C409.565 915.153 409.786 911.201 410.987 907.629C413.388 900.389 419.044 894.54 425.901 891.283C432.758 887.932 441.068 887.679 448.241 890.272C455.477 892.864 461.67 897.859 466.094 904.088C470.517 910.379 472.856 917.967 473.393 925.523C474.341 940.761 468.59 956.032 458.415 967.318C448.367 978.605 433.674 986.414 418.033 986.382C402.424 986.382 387.352 978.289 378.409 965.516C373.891 959.193 371.237 951.321 370.889 943.544C370.51 935.735 372.09 928.084 374.396 920.939C376.703 913.762 379.768 906.996 382.77 900.325L391.744 880.345L400.844 860.395C403.814 853.693 407.321 847.243 408.427 840.762C409.028 837.538 408.838 834.408 407.637 831.752C406.374 829.128 404.351 827.136 401.571 826.219C395.915 824.48 388.773 826.725 384.065 830.93C381.664 833.08 379.926 835.609 379.01 838.707C378.03 841.837 377.651 845.188 377.777 848.54C378.062 855.305 380.305 862.103 383.149 868.615C386.056 875.128 389.5 881.578 392.913 887.996C396.325 894.413 399.864 900.768 403.561 907.028C418.254 932.162 434.875 956.158 452.222 979.648C456.488 985.56 461.006 991.346 464.861 997.669C468.685 1003.96 471.845 1010.95 472.635 1018.44C473.646 1025.93 470.865 1033.68 465.873 1039.15C463.345 1041.87 460.248 1044.11 456.741 1045.31C453.265 1046.51 449.347 1046.51 445.966 1045.09C449.41 1046.36 453.265 1046.2 456.583 1044.87C459.932 1043.57 462.839 1041.27 465.146 1038.55C469.822 1033.08 472.161 1025.71 470.96 1018.66C470.012 1011.58 466.757 1004.97 462.839 998.965C458.889 992.927 454.245 987.331 449.758 981.514C431.905 958.339 414.715 934.565 399.422 909.526C391.744 896.974 384.508 884.328 378.188 870.828C375.186 863.999 372.627 856.696 372.184 848.824C371.995 844.904 372.406 840.857 373.575 837.032C374.712 833.111 377.177 829.349 380.242 826.662C383.307 823.911 386.941 821.92 390.859 820.781C394.777 819.675 399.106 819.327 403.34 820.623C407.606 821.888 411.271 825.334 413.072 829.318C414.905 833.364 415.063 837.854 414.368 841.774C412.978 849.804 409.281 856.349 406.437 862.988L397.431 882.969L388.299 902.886C385.266 909.526 382.264 916.07 380.021 922.804C377.809 929.506 376.355 936.43 376.671 943.259C376.798 946.673 377.398 950.025 378.504 953.186C379.547 956.379 381.095 959.446 383.054 962.228C390.764 973.452 404.32 980.85 417.97 980.913C431.747 980.976 445.239 974.242 454.75 964.03C464.324 953.85 469.949 939.75 469.348 925.713C469.001 918.726 467.01 911.802 463.092 906.048C459.174 900.294 453.581 895.646 447.103 893.086C440.626 890.525 433.232 890.493 426.786 893.37C420.371 896.152 414.905 901.464 412.472 908.071C409.912 914.71 411.587 922.456 416.011 928.115C420.277 933.774 427.513 937.695 434.875 936.62L434.938 936.683Z" fill="#2BA7DF" fill-opacity="0.15"/>
<path d="M429.503 937.315C430.641 938.738 432.442 939.149 433.959 938.959C435.507 938.77 436.834 937.916 437.245 936.778L437.182 936.904C438.319 933.774 436.076 930.739 433.232 929.095C431.778 928.305 430.198 927.831 428.808 927.862C427.386 927.894 426.438 928.463 425.68 929.348C424.922 930.265 424.669 931.308 424.922 932.605C425.174 933.869 425.87 935.292 426.881 936.462C427.892 937.631 429.187 938.548 430.483 938.928C431.747 939.339 432.853 939.275 433.959 938.643L433.042 939.686C434.749 936.746 434.685 931.846 431.873 930.075C431.178 929.633 430.641 929.506 429.788 929.664C428.966 929.822 428.113 930.391 427.418 931.119C426.723 931.846 426.154 932.763 425.996 933.806C425.806 934.786 426.154 935.956 427.197 936.651C426.028 936.398 424.953 935.197 424.827 933.806C424.669 932.446 425.016 931.055 425.68 929.854C426.344 928.653 427.323 927.578 428.713 926.851C430.04 926.092 432.063 926.092 433.485 926.692C436.518 927.799 438.382 930.802 438.951 933.585C439.583 936.43 439.362 939.433 438.066 942.216L437.814 942.753L437.15 943.259C434.875 944.998 431.494 945.567 428.84 944.776C426.154 944.018 423.974 942.5 422.236 940.603C420.53 938.706 419.202 936.367 418.76 933.585C418.254 930.834 419.108 927.483 421.13 925.333C423.057 923.088 426.28 921.95 428.966 922.203C431.715 922.361 434.085 923.404 436.044 924.89C437.972 926.408 439.646 928.336 440.531 930.739C441.447 933.142 441.226 936.082 439.867 938.2L439.804 938.327C438.319 940.287 435.918 940.919 433.959 940.603C431.968 940.35 430.104 939.054 429.567 937.284L429.503 937.315Z" fill="#2BA7DF" fill-opacity="0.15"/>
<path d="M426.912 931.119C427.639 931.53 428.303 931.498 428.777 931.372C429.282 931.214 429.661 931.024 429.946 930.739C430.23 930.518 430.42 930.202 430.388 930.044C430.388 929.854 430.167 929.917 430.072 930.044L433.485 933.901C433.485 933.901 433.39 934.027 433.169 934.217C432.948 934.407 432.663 934.786 432.379 935.26C432.126 935.766 431.873 936.335 431.684 937.031C431.557 937.726 431.494 938.58 432.126 939.686C430.925 940.161 429.44 939.56 428.524 938.517C427.544 937.473 427.039 936.114 426.976 934.723C426.881 933.332 427.228 931.846 428.145 930.486C429.029 929.159 430.767 927.989 432.537 927.862L437.34 927.483L435.981 931.719C435.539 933.079 434.433 934.185 433.358 934.691C432.252 935.197 431.146 935.26 430.167 935.071C429.187 934.818 428.271 934.407 427.639 933.648C426.976 932.952 426.691 931.909 426.976 931.119H426.912Z" fill="#2BA7DF" fill-opacity="0.15"/>
<path d="M150.525 52.0874C150.43 47.9458 148.218 44.4365 145.311 42.255C142.435 40.0103 138.77 39.2832 135.231 39.5045C131.692 39.8206 128.09 40.9588 125.372 42.9821C122.56 44.9739 120.222 47.7877 119.337 50.8228C118.326 53.7946 119.021 56.8297 121.075 59.0744C123.129 61.3823 126.542 62.7733 130.017 63.0895C133.43 63.374 137.19 62.3624 140.634 60.6551C144.173 59.0111 147.459 56.6084 150.809 54.2372C148.439 57.5884 145.658 60.6867 142.246 63.2792C138.833 65.7768 134.694 67.8318 129.923 67.9898C125.309 68.2112 120.506 66.6936 116.778 63.2476C113.049 59.7383 111.691 53.7314 113.302 48.9258C114.914 44.1519 118.168 40.4845 122.086 37.9869C126.131 35.5526 130.649 34.3196 135.231 34.5409C139.75 34.6989 144.458 36.501 147.459 39.9471C150.43 43.2983 151.883 48.0406 150.556 52.0241L150.525 52.0874Z" fill="#2BA7DF" fill-opacity="0.15"/>
<path d="M143.573 58.5685C153.463 49.7478 161.552 39.2832 168.535 28.1546C172.074 22.6219 175.455 16.9628 178.773 11.272L183.797 2.73591L185.093 0.586066C185.598 -0.172701 186.199 -1.12114 187.305 -1.94314C188.411 -2.79675 190.148 -3.14454 191.349 -2.92323C192.582 -2.76516 193.529 -2.35416 194.351 -2.03801L212.709 5.45482L221.873 9.24864L226.486 11.1456C228.066 11.8095 229.804 12.5999 231.479 13.8645C233.153 15.0975 234.67 17.026 235.397 19.0494C236.155 21.0412 236.408 23.0329 236.503 24.8666C236.629 28.534 236.44 31.6323 236.408 34.9835L236.029 54.8063L235.492 74.6291C235.302 81.2367 235.176 87.9707 234.228 94.7364C233.217 101.502 231.479 108.331 227.971 114.559C224.527 120.692 219.535 126.162 213.025 129.387C209.771 130.967 206.295 132.074 202.566 132.2C198.901 132.327 195.046 131.6 191.823 129.324C188.537 127.142 186.578 123.127 186.546 119.365C186.451 115.571 187.747 111.935 189.99 109.058C192.297 106.181 195.394 104.253 198.617 103.02C201.871 101.787 205.252 101.186 208.602 101.028C211.983 100.87 215.427 101.186 218.618 102.292C221.81 103.399 224.748 105.517 226.297 108.457C224.432 105.675 221.43 103.968 218.334 103.209C215.206 102.387 211.919 102.292 208.728 102.672C202.408 103.431 195.899 105.928 192.455 110.892C190.812 113.326 189.927 116.33 190.148 119.175C190.401 122.02 191.792 124.486 194.13 125.909C196.436 127.363 199.407 127.869 202.314 127.648C205.189 127.458 208.128 126.415 210.75 125.024C216.027 122.115 220.23 117.31 223.105 111.903C226.012 106.497 227.497 100.269 228.256 93.9776C229.014 87.6545 229.172 81.1418 229.298 74.5026L229.678 54.6798L230.215 34.857C230.278 31.6007 230.468 28.0914 230.404 25.1512C230.341 23.6968 230.152 22.3374 229.709 21.2625C229.267 20.1559 228.73 19.3656 227.782 18.6068C225.917 17.1209 222.568 15.9195 219.598 14.56L210.529 10.5765L192.424 2.5146C191.728 2.19845 191.096 1.94553 190.717 1.8823C190.306 1.85069 190.275 1.85068 190.054 1.94552C189.548 2.16683 188.569 3.81084 187.684 5.1703L182.281 13.4851C178.647 19.0178 174.981 24.5505 171.063 29.9567C163.164 40.611 154.38 50.9176 143.573 58.6317V58.5685Z" fill="#2BA7DF" fill-opacity="0.15"/>
<path d="M174.16 22.5271C179.057 23.5704 183.671 24.8982 188.284 26.1945L201.998 30.0515L215.711 33.877C220.325 35.1416 224.969 36.4062 229.678 38.0818C224.748 39.0619 219.787 39.1251 214.858 38.7457C209.929 38.3663 205.031 37.5128 200.291 36.1533C195.52 34.8255 190.907 33.0234 186.483 30.8103C182.059 28.5972 177.857 25.9416 174.16 22.5587V22.5271Z" fill="#2BA7DF" fill-opacity="0.15"/>
<path d="M823.72 809.431C822.298 812.53 819.707 814.838 816.769 816.45L814.494 817.525C813.735 817.873 812.914 818.062 812.124 818.347C810.544 818.948 808.869 819.169 807.226 819.517C800.59 820.655 793.828 820.528 787.13 819.801C780.462 819.042 773.827 817.809 767.286 816.102C760.777 814.363 754.394 812.119 748.106 809.653C735.625 804.468 723.555 797.987 712.843 789.356C707.566 784.993 702.51 780.124 698.56 774.149C697.644 772.6 696.601 771.145 695.906 769.438C695.527 768.585 695.085 767.794 694.769 766.909L693.916 764.19C692.999 760.491 692.841 756.254 694.484 752.303C696.285 748.414 699.54 745.663 702.858 743.861L705.449 742.66C706.302 742.281 707.187 742.091 708.071 741.806C709.841 741.174 711.61 740.953 713.348 740.605C720.426 739.498 727.409 739.973 734.203 740.953C747.79 743.039 760.714 747.655 772.942 753.377C779.009 756.349 784.949 759.574 790.637 763.21C796.293 766.877 801.696 770.956 806.72 775.382C811.776 779.808 816.421 784.771 820.023 790.431C820.876 791.885 821.824 793.276 822.456 794.825C822.772 795.584 823.183 796.343 823.467 797.133L824.194 799.536C824.953 802.792 825.016 806.27 823.657 809.4L823.72 809.431ZM823.72 809.431C825.016 806.302 824.921 802.824 824.131 799.599L823.373 797.196C823.12 796.406 822.678 795.679 822.362 794.92C821.73 793.371 820.75 791.98 819.897 790.557C816.2 784.961 811.334 780.282 806.215 776.046C795.819 767.668 783.97 761.345 771.741 756.254C765.58 753.82 759.323 751.639 752.941 749.931C746.558 748.256 740.08 747.055 733.603 746.327C727.157 745.6 720.584 745.505 714.423 746.58C712.906 746.896 711.358 747.118 709.936 747.655C709.241 747.908 708.482 748.066 707.819 748.382L705.86 749.331C703.363 750.722 701.373 752.556 700.33 754.832C699.35 757.14 699.35 759.859 699.982 762.641L700.614 764.727C700.836 765.423 701.215 766.087 701.499 766.782C702.036 768.174 702.921 769.47 703.711 770.829C707.06 776.109 711.547 780.914 716.413 785.182C721.311 789.482 726.556 793.466 732.086 797.07C737.647 800.642 743.461 803.804 749.402 806.744C761.409 812.372 774.048 816.893 787.256 818.916C793.828 819.864 800.59 820.307 807.194 819.264C808.838 818.948 810.481 818.726 812.061 818.157C812.85 817.904 813.672 817.715 814.43 817.367L816.705 816.324C819.612 814.743 822.267 812.466 823.689 809.4L823.72 809.431Z" fill="#2BA7DF" fill-opacity="0.15"/>
<path d="M699.098 749.868C710.094 736.685 721.406 723.786 732.528 710.76L766.433 672.063C789.12 646.328 812.061 620.846 835.032 595.396L841.036 588.757L840.499 597.704C838.477 632.417 836.328 667.099 833.832 701.781C832.631 719.107 831.272 736.463 829.913 753.789C828.397 771.114 827.07 788.439 825.363 805.764C825.648 788.376 826.343 770.987 826.817 753.63C827.449 736.242 828.112 718.885 828.902 701.528C830.387 666.783 832.252 632.07 834.211 597.388L839.709 599.696C816.611 625.051 793.481 650.343 770.035 675.414L734.803 712.878C722.891 725.24 711.136 737.728 699.098 749.931V749.868Z" fill="#2BA7DF" fill-opacity="0.15"/>
<path d="M776.386 741.775C775.691 740.068 775.596 738.582 775.628 737.191C775.723 735.799 776.039 734.503 776.544 733.302C777.05 732.1 777.745 730.962 778.693 729.951C779.673 728.939 780.778 727.99 782.516 727.295C783.212 729.002 783.338 730.488 783.275 731.879C783.18 733.27 782.864 734.566 782.358 735.768C781.853 736.969 781.126 738.107 780.21 739.119C779.23 740.131 778.124 741.079 776.386 741.775Z" fill="#2BA7DF" fill-opacity="0.15"/>
<path d="M761.409 775.856C760.714 774.149 760.619 772.663 760.651 771.272C760.745 769.881 761.061 768.585 761.567 767.383C762.072 766.182 762.768 765.044 763.716 764.032C764.695 763.02 765.801 762.072 767.539 761.376C768.234 763.083 768.329 764.569 768.297 765.96C768.202 767.351 767.886 768.648 767.381 769.849C766.875 771.051 766.149 772.189 765.232 773.2C764.253 774.212 763.147 775.16 761.409 775.856Z" fill="#2BA7DF" fill-opacity="0.15"/>
<path d="M791.743 707.852C790.953 706.176 790.795 704.722 790.764 703.299C790.764 701.908 791.016 700.612 791.49 699.379C791.933 698.146 792.596 697.008 793.481 695.933C794.397 694.889 795.472 693.878 797.178 693.119C797.968 694.794 798.126 696.249 798.157 697.671C798.157 699.062 797.905 700.359 797.431 701.592C796.988 702.825 796.325 703.963 795.44 705.038C794.524 706.081 793.449 707.093 791.775 707.852H791.743Z" fill="#2BA7DF" fill-opacity="0.15"/>
<path d="M804.888 673.644C804.193 671.937 804.098 670.451 804.129 669.06C804.224 667.669 804.54 666.372 805.046 665.171C805.551 663.97 806.247 662.831 807.195 661.82C808.174 660.808 809.28 659.86 811.018 659.164C811.713 660.871 811.808 662.357 811.776 663.748C811.681 665.139 811.365 666.436 810.86 667.637C810.354 668.838 809.628 669.976 808.711 670.988C807.732 672 806.626 672.948 804.888 673.644Z" fill="#2BA7DF" fill-opacity="0.15"/>
<path d="M818.159 641.143C817.464 639.436 817.369 637.95 817.401 636.559C817.495 635.168 817.811 633.872 818.317 632.67C818.823 631.469 819.518 630.331 820.466 629.319C821.445 628.307 822.551 627.359 824.289 626.664C824.984 628.371 825.11 629.857 825.047 631.248C824.952 632.639 824.637 633.935 824.131 635.136C823.625 636.338 822.899 637.476 821.982 638.488C821.003 639.499 819.897 640.448 818.159 641.143Z" fill="#2BA7DF" fill-opacity="0.15"/>
<path d="M768.297 786.005C769.846 785.372 771.109 785.341 772.247 785.404C773.385 785.53 774.396 785.847 775.312 786.352C776.228 786.858 777.05 787.585 777.713 788.502C778.377 789.451 778.977 790.557 779.23 792.233C777.65 792.865 776.418 792.928 775.249 792.833C774.111 792.707 773.1 792.391 772.184 791.853C771.268 791.316 770.478 790.62 769.782 789.704C769.119 788.755 768.518 787.649 768.266 786.005H768.297Z" fill="#2BA7DF" fill-opacity="0.15"/>
<path d="M791.332 797.797C793.007 797.228 794.366 797.228 795.63 797.386C796.893 797.576 797.999 797.955 799.042 798.524C800.085 799.093 801.001 799.884 801.791 800.864C802.581 801.875 803.276 803.045 803.655 804.784C801.981 805.353 800.622 805.353 799.358 805.195C798.094 805.005 796.957 804.626 795.946 804.025C794.934 803.456 794.018 802.666 793.197 801.686C792.407 800.674 791.711 799.504 791.332 797.797Z" fill="#2BA7DF" fill-opacity="0.15"/>
<path d="M853.012 570.799C850.894 567.733 846.882 568.017 845.175 569.63C843.248 571.21 842.268 574.435 842.711 576.585C842.995 577.723 843.374 577.881 843.564 577.913C843.753 578.008 844.859 577.818 845.744 577.091C846.629 576.522 847.387 575.384 848.398 573.898C849.378 572.475 850.452 570.641 852.285 569.219L857.246 565.361L856.519 571.115C856.171 573.866 855.445 576.237 854.718 578.64L852.285 585.785C851.653 583.256 851.653 580.695 851.558 578.197C851.558 575.731 851.59 573.17 851.463 570.989L855.697 572.918C854.939 573.929 854.181 575.225 853.391 576.838C852.98 577.628 852.538 578.513 851.937 579.399C851.4 580.252 850.484 581.296 849.567 582.023C847.735 583.445 845.175 584.805 841.889 583.983C840.309 583.572 838.887 582.497 838.066 581.201C837.213 579.904 836.865 578.545 836.77 577.312C836.612 574.814 837.213 572.633 838.255 570.673C839.361 568.776 840.973 567.037 843.09 566.089C847.419 564.002 852.822 566.847 852.948 570.831L853.012 570.799Z" fill="#2BA7DF" fill-opacity="0.15"/>
<path d="M845.681 799.568C845.08 803.899 844.164 808.135 843.09 812.308C842.616 814.427 841.952 816.45 841.415 818.537C840.846 820.623 840.151 822.647 839.519 824.702L834.306 822.141C836.201 818.821 838.571 814.774 843.121 812.403C845.554 811.202 848.209 810.886 850.831 811.455C853.391 811.929 856.171 813.826 857.277 816.671C858.478 819.548 857.593 822.647 856.108 824.638C854.623 826.693 852.474 828.148 850.01 828.59C845.27 829.381 841.257 827.073 838.476 824.354C842.173 825.682 846.123 826.282 849.03 824.986C850.326 824.385 851.4 823.279 852 822.046C852.569 820.781 852.538 819.612 852.127 818.884C851.716 818.094 850.831 817.651 849.599 817.43C848.398 817.24 846.976 817.43 845.965 817.999C843.469 819.232 841.447 822.078 839.235 825.239L834.021 822.678C834.874 820.718 835.664 818.726 836.581 816.766C837.497 814.838 838.35 812.846 839.33 810.917C841.226 807.06 843.279 803.235 845.649 799.536L845.681 799.568Z" fill="#2BA7DF" fill-opacity="0.15"/>
<path d="M503.885 154.837C512.29 161.571 521.58 167.23 531.66 170.708C541.708 174.186 552.514 175.324 562.942 173.869C583.986 171.214 602.787 158.884 616.437 143.013C644.433 111.461 639.851 57.462 608.348 30.3361C592.833 16.6783 571.189 10.8611 550.492 12.7264C529.764 14.4652 509.478 24.013 496.049 39.9787C482.651 56.0393 476.205 77.6641 477.216 98.7515C477.659 109.311 479.997 119.902 484.421 129.576C488.876 139.251 495.448 148.04 503.853 154.805C495.006 148.609 487.833 140.041 482.904 130.304C477.911 120.598 475.036 109.849 474.12 98.9412C472.445 77.1267 478.449 54.4269 492.257 36.8804C499.145 28.123 508.119 21.0412 518.073 16.0776C528.026 11.0824 538.896 8.01568 549.955 6.97237C571.947 4.79092 595.33 10.703 612.487 25.5305C629.519 40.4213 638.935 62.4572 640.42 84.5563C641.178 95.6216 639.946 106.877 636.597 117.499C633.311 128.122 627.56 138.081 620.039 146.206C612.645 154.331 604.051 161.413 594.445 166.819C584.871 172.194 574.222 175.893 563.258 176.904C552.293 177.916 541.171 176.241 531.059 172.225C520.885 168.274 511.816 162.045 503.885 154.805V154.837Z" fill="#2BA7DF" fill-opacity="0.15"/>
<path d="M536.431 12.9793C532.892 14.4652 530.712 17.5319 529.795 20.7882C528.753 24.0762 529.1 27.3642 530.301 30.4625C531.565 33.4976 533.461 36.3746 535.862 38.9038C537 40.1052 538.358 41.5911 539.464 42.4131C540.634 43.3299 542.055 43.9939 543.003 44.0887C543.477 44.1519 543.699 44.0887 543.793 44.0571C543.92 43.9939 544.109 43.8358 544.236 43.5828C544.552 43.0138 544.457 41.3065 544.394 39.2832C544.267 37.2598 544.804 34.3512 546.037 32.4227C547.206 30.3677 548.754 28.8818 550.239 27.5855L554.568 24.013C555.263 23.4123 555.864 22.9381 556.338 22.3374C556.843 21.7367 557.286 21.0412 557.665 20.2824C558.423 18.7965 558.897 17.1209 558.866 15.4453C558.866 13.8013 558.044 12.094 556.243 11.3036C557.191 11.3985 558.17 11.7463 558.96 12.4418C559.75 13.1373 560.256 14.1174 560.572 15.1291C561.204 17.1525 561.046 19.3023 560.572 21.3573C560.287 22.369 559.908 23.3807 559.371 24.3292C558.866 25.3092 558.107 26.1945 557.538 26.9216C556.275 28.4391 554.884 29.767 553.715 31.0948C552.546 32.4227 551.535 33.7505 550.934 35.0151C550.334 36.3746 550.208 37.323 550.397 39.0302C550.46 40.7059 551.029 42.8557 549.987 45.8592C549.418 47.3451 548.312 48.7045 546.795 49.5581C545.247 50.4434 543.509 50.5699 542.15 50.3802C536.715 49.3369 533.84 45.7011 531.344 42.7925C528.879 39.6626 526.604 36.0584 525.624 31.9168C524.519 27.8701 524.929 23.191 526.983 19.5869C528.911 15.9511 532.544 13.0425 536.463 12.9793H536.431Z" fill="#2BA7DF" fill-opacity="0.15"/>
<path d="M586.988 15.8563C581.616 17.8796 578.614 23.602 579.183 28.5972C579.341 29.8618 579.689 30.9367 580.289 32.1697C580.858 33.4027 581.585 34.7306 581.995 36.4378C582.406 38.1767 582.185 40.1684 581.332 41.8124C580.479 43.488 579.246 44.721 577.919 45.6695C575.328 47.5664 572.39 48.7045 569.862 49.7478C567.397 50.7911 564.996 51.9925 562.847 53.4152C558.455 56.1974 555.232 60.2125 555.011 64.5122L553.336 61.6036C556.117 62.9946 559.845 62.5836 563.447 61.2242C567.049 59.9596 570.652 57.6833 574.854 55.7864C576.94 54.8379 579.215 54.0159 581.679 53.5733C584.049 53.1307 586.988 53.1939 589.452 54.0792C591.949 54.9328 594.224 56.3238 596.056 58.4104C597.889 60.4338 599.027 63.5637 598.489 66.5039L598.205 64.9232C598.3 65.1129 598.205 65.0812 598.489 65.2077C598.742 65.3025 599.279 65.271 599.785 65.0497C600.891 64.607 601.776 63.8482 602.092 62.7417C602.534 61.4455 602.597 59.8015 602.597 58.0311C602.629 56.1974 602.439 54.4269 603.04 52.119C603.766 49.8427 605.315 48.42 606.831 47.2186C608.38 46.0489 610.023 45.132 611.729 44.3732C615.11 42.8873 618.681 41.8757 622.314 41.686C618.807 42.5712 615.552 44.1519 612.582 46.0172C611.129 46.9657 609.707 47.9774 608.506 49.1788C607.337 50.3485 606.389 51.708 606.168 52.9726C605.694 55.7547 607.147 59.4853 606.263 63.8799C606.073 64.9232 605.378 66.3459 604.588 67.1995C603.766 68.1479 602.787 68.8751 601.681 69.3809C600.543 69.8868 599.248 70.2346 597.731 70.0449C596.214 69.8868 594.477 68.7803 593.75 67.3576L593.371 66.6304L593.465 65.7768C593.75 63.1527 591.064 60.4338 587.778 59.5486C584.681 58.6001 581.047 59.6751 577.445 61.3507C573.811 62.9947 570.146 65.4922 565.628 67.1362C563.384 67.9266 561.014 68.5273 558.423 68.6222C555.864 68.7486 553.115 68.306 550.65 67.0414L548.817 66.1246L548.944 64.1328C549.197 60.6551 550.587 57.2407 552.736 54.743C554.821 52.1822 557.349 50.2537 559.971 48.7046C562.594 47.1238 565.343 45.9224 568.155 45.0055C570.904 44.1203 573.369 43.33 575.454 42.0337C577.508 40.7375 578.772 39.1567 578.519 37.0385C578.393 35.9636 577.919 34.7306 577.414 33.3395C576.908 31.9485 576.592 30.2412 576.592 28.6921C576.655 22.369 581.363 16.7415 587.051 15.8246L586.988 15.8563Z" fill="#2BA7DF" fill-opacity="0.15"/>
<path d="M633.437 62.805C634.1 67.895 632.9 73.238 630.404 77.9803C627.844 82.6594 623.989 86.7378 619.123 89.4567C614.194 92.302 608.538 92.8395 603.798 93.7247C601.397 94.1673 599.121 94.6416 597.099 95.4636C595.267 96.2223 593.529 97.4553 592.265 99.0044C590.938 100.49 590.116 102.261 590.053 103.81C590.053 105.359 590.748 106.75 592.17 108.046C593.623 109.374 595.772 110.481 598.047 111.777C600.322 112.978 602.882 114.812 604.62 116.994C608.253 121.198 610.118 126.004 613.372 129.165C614.984 130.746 617.101 131.948 619.376 132.517C621.619 133.086 624.21 132.833 626.106 131.031C625.443 132.106 624.4 133.023 623.136 133.56C621.872 134.097 620.482 134.287 619.123 134.256C616.374 134.161 613.72 133.149 611.413 131.6C606.863 128.217 604.304 123.506 600.986 120.376C599.343 118.764 597.636 117.784 595.393 116.677C593.213 115.571 590.716 114.559 588.252 112.631C585.787 110.734 583.765 107.351 583.828 103.747C583.891 100.206 585.44 97.1708 587.43 94.8629C589.452 92.5549 591.949 90.8161 594.824 89.7095C597.51 88.6979 600.259 88.1604 602.818 87.8443C608.032 87.2436 612.677 86.8642 616.848 85.0621C625.221 81.3315 631.952 72.9535 633.342 62.8366L633.437 62.805Z" fill="#2BA7DF" fill-opacity="0.15"/>
<path d="M476.616 90.2786C481.514 99.0361 488.402 105.991 496.112 111.777C499.998 114.622 504.043 117.278 508.277 119.554C512.48 121.926 516.809 123.854 521.454 125.941C525.972 128.154 530.712 130.557 534.788 134.255C536.779 136.121 538.58 138.302 539.938 140.737C541.297 143.139 542.245 145.637 542.972 148.103C544.489 153.035 545.342 157.935 546.479 162.709C547.585 167.483 548.881 172.194 551.661 176.367C547.775 173.079 545.436 168.242 543.509 163.658C541.645 158.979 540.096 154.205 538.295 149.779C536.399 145.321 534.314 141.527 530.775 138.745C527.362 135.868 523.16 133.686 518.736 131.663C514.376 129.545 509.604 127.458 505.275 124.739C500.946 122.02 496.744 119.08 492.984 115.571C485.432 108.742 479.081 100.079 476.616 90.2786Z" fill="#2BA7DF" fill-opacity="0.15"/>
<path d="M560.477 174.217C560.698 164.986 563.7 156.07 564.68 147.186C565.248 142.76 565.438 138.334 564.206 134.35C562.973 130.367 560.793 126.573 557.76 123.917C554.758 121.262 550.998 119.839 547.522 120.756C545.784 121.104 543.951 122.115 541.992 123.19C540.002 124.265 537.885 125.561 535.104 126.32C532.355 127.11 528.848 126.857 526.162 125.087C523.476 123.38 521.801 120.851 520.822 118.195C519.842 115.571 519.652 112.536 520.032 109.943C520.411 107.288 521.232 104.853 522.149 102.609C524.108 98.1508 526.13 94.3254 527.994 90.1205C529.859 86.0106 531.597 81.8373 533.303 77.6325C534.883 73.4593 537.189 69.0016 536.779 66.0297C536.715 64.7651 535.578 63.4372 534.63 63.1527C534.188 63.0263 533.966 62.9946 533.429 63.2792C532.924 63.5321 532.26 64.2276 531.502 65.1128C530.775 65.9665 529.638 67.1046 528.31 67.8318C527.015 68.6221 525.498 69.0016 524.076 69.0964C521.201 69.3177 518.578 68.4641 516.303 67.2311C514.06 65.9981 512.069 64.2592 510.552 62.2991C509.067 60.3706 507.803 58.3788 506.634 56.4186C505.465 54.4585 504.327 52.53 502.969 50.8228C501.578 49.0523 500.188 47.598 498.134 47.1554C496.112 46.6495 493.869 46.9025 491.815 47.6928C489.761 48.4516 487.802 49.7478 486.443 51.5815C488.686 47.5664 493.489 44.8791 498.482 45.5114C499.714 45.6695 500.946 46.1437 502.052 46.8392C503.158 47.5664 503.948 48.3884 504.801 49.242C506.476 50.9492 507.866 52.8462 509.225 54.6798C511.911 58.4104 514.47 61.9513 518.199 63.5005C520 64.2909 521.959 64.7651 523.634 64.5122C524.487 64.3857 525.245 64.1644 525.877 63.7218C526.509 63.2792 527.046 62.7733 527.742 61.8565C528.437 61.0029 529.227 59.8963 530.68 58.9163C532.071 57.9046 534.314 57.4619 536.052 57.9994C539.528 59.0427 541.645 61.8881 542.245 65.1128C542.751 68.1795 541.961 70.8985 541.234 73.2064C540.444 75.4827 539.686 77.5693 538.864 79.7507C537.253 84.082 535.452 88.3185 533.619 92.5549L527.963 104.98C526.288 108.9 525.372 112.757 526.604 116.013C527.173 117.657 528.216 119.08 529.416 119.839C530.617 120.598 532.007 120.787 533.65 120.408C537.126 119.712 540.886 116.393 546.353 115.255C549.07 114.686 552.009 114.939 554.537 115.919C557.096 116.899 559.276 118.448 561.078 120.25C564.711 123.886 567.049 128.438 568.124 133.244C569.23 138.176 568.598 143.076 567.65 147.597C565.564 156.702 562.025 165.08 560.414 174.122L560.477 174.217Z" fill="#2BA7DF" fill-opacity="0.15"/>
<path d="M884.736 -47.3427C879.68 -48.3227 874.561 -47.6904 869.727 -46.331C867.326 -45.6354 864.956 -44.7186 862.712 -43.6437C860.469 -42.5371 858.225 -41.3358 856.487 -39.8182C849.251 -33.7481 846.787 -22.1769 851.969 -14.8738C854.465 -11.238 858.636 -8.67718 862.997 -6.74865C867.42 -4.85173 872.255 -3.71358 877.216 -2.57543C887.137 -0.330746 897.217 2.35656 906.949 4.34832C911.816 5.29678 916.65 5.86585 921.295 5.42323C925.877 5.01223 930.427 3.4631 934.06 0.870647C937.726 -1.72181 940.222 -5.48402 940.917 -9.84693C941.644 -14.2098 940.664 -18.9521 938.611 -23.1254C936.588 -27.2986 933.176 -30.7763 929.194 -33.59C925.245 -36.4038 920.663 -38.4588 915.923 -40.0395C906.444 -43.3591 896.08 -44.4024 886.221 -47.2794C896.364 -45.7935 906.57 -45.4141 916.776 -43.0114C921.832 -41.7468 926.856 -39.8498 931.47 -37.0361C936.051 -34.2539 940.222 -30.3652 942.94 -25.4333C945.657 -20.5961 947.174 -14.8421 946.352 -9.05655C945.973 -6.17956 944.993 -3.30258 943.477 -0.773361C941.96 1.75586 939.875 3.9057 937.6 5.67616C932.955 9.15384 927.457 10.9875 921.895 11.5566C916.366 12.1257 910.931 11.525 905.749 10.5133C900.567 9.46999 895.637 8.14215 890.676 6.90916L875.794 3.17855C870.833 1.88232 865.682 0.554489 860.722 -1.75343C855.824 -4.06134 850.989 -7.22287 847.83 -12.2497C844.733 -17.2133 844.038 -23.4415 845.523 -28.8161C846.976 -34.1907 850.073 -39.0911 854.591 -42.3475C856.898 -43.9598 859.331 -44.9715 861.764 -45.92C864.229 -46.8368 866.757 -47.564 869.316 -48.0382C874.403 -49.0183 879.807 -49.0815 884.704 -47.4375L884.736 -47.3427Z" fill="#2BA7DF" fill-opacity="0.15"/>
<path d="M152.642 816.893L248.51 770.418C264.53 762.767 280.55 755.085 296.729 747.75C312.875 740.352 329.243 733.333 345.832 726.884C330.286 735.546 314.676 744.051 298.877 752.176C283.141 760.396 267.216 768.332 251.227 776.109C235.176 783.76 219.029 791.221 202.598 798.113C186.23 805.068 169.547 811.392 152.61 816.893H152.642Z" fill="#2BA7DF" fill-opacity="0.15"/>
<path d="M152.262 816.482C145.406 804.057 142.341 789.798 141.203 775.635C140.224 761.408 141.519 746.928 145.564 733.049C153.653 705.259 174.097 681.295 200.481 668.87C203.767 667.352 207.18 665.93 210.624 664.886L221.083 661.914C228.192 660.555 235.365 659.29 242.664 659.354C257.168 659.196 271.671 662.167 284.848 667.953C298.087 673.644 310.094 681.832 320.522 691.538C330.823 701.307 339.955 712.562 345.958 725.398C342.419 719.296 338.09 713.732 333.572 708.389C328.864 703.204 323.903 698.272 318.468 693.878C307.788 684.93 295.812 677.596 282.983 672.537C257.389 662.262 227.971 662.989 203.167 674.624C178.426 686.132 158.866 708.452 150.272 734.535C146.038 747.624 144.078 761.597 144.3 775.54C144.426 789.451 146.733 803.519 152.294 816.513L152.262 816.482Z" fill="#2BA7DF" fill-opacity="0.15"/>
<path d="M183.355 779.302C192.329 773.485 201.587 768.237 210.94 763.178C220.261 758.088 229.772 753.346 239.283 748.667C248.858 744.083 258.463 739.593 268.227 735.388C277.959 731.184 287.818 727.168 297.929 723.722C288.955 729.54 279.697 734.788 270.344 739.846C261.023 744.936 251.512 749.679 242.001 754.358C232.427 758.942 222.821 763.431 213.057 767.604C203.293 771.809 193.466 775.824 183.355 779.27V779.302Z" fill="#2BA7DF" fill-opacity="0.15"/>
<path d="M180.385 780.061C175.582 765.834 177.414 749.615 183.576 735.673C186.609 728.623 190.938 722.11 196.184 716.419C201.46 710.76 207.97 706.049 215.079 702.888C222.157 699.758 229.709 697.703 237.387 696.913C245.066 696.186 252.839 696.565 260.328 698.304C275.242 701.592 289.271 709.843 297.929 722.078C287.281 711.645 273.536 705.417 259.411 703.141C245.255 700.896 230.562 702.761 217.67 708.642C204.747 714.175 194.604 725.114 188 737.791C181.459 750.532 178.204 765.297 180.385 780.061Z" fill="#2BA7DF" fill-opacity="0.15"/>
<path d="M200.418 673.96C202.156 674.244 203.356 674.877 204.431 675.604C205.473 676.363 206.295 677.216 206.927 678.228C207.559 679.208 208.033 680.346 208.286 681.579C208.507 682.844 208.602 684.203 208.128 685.911C206.358 685.626 205.189 684.994 204.115 684.267C203.072 683.508 202.25 682.654 201.618 681.642C200.986 680.631 200.513 679.524 200.26 678.291C200.039 677.027 199.944 675.667 200.418 673.96Z" fill="#2BA7DF" fill-opacity="0.15"/>
<path d="M233.28 662.484C234.828 663.464 235.713 664.602 236.471 665.74C237.166 666.91 237.64 668.111 237.893 669.344C238.146 670.577 238.177 671.873 237.988 673.233C237.735 674.592 237.356 675.952 236.313 677.469C234.765 676.489 233.88 675.351 233.122 674.213C232.427 673.043 231.953 671.842 231.7 670.609C231.447 669.376 231.415 668.079 231.605 666.72C231.858 665.361 232.237 664.001 233.28 662.484Z" fill="#2BA7DF" fill-opacity="0.15"/>
<path d="M281.846 669.186C282.825 670.735 283.173 672.126 283.394 673.454C283.552 674.814 283.489 676.078 283.205 677.343C282.92 678.576 282.415 679.777 281.688 680.915C280.898 682.053 279.982 683.128 278.402 684.077C277.391 682.528 277.043 681.137 276.853 679.809C276.695 678.449 276.759 677.185 277.075 675.952C277.359 674.719 277.865 673.517 278.591 672.379C279.381 671.241 280.298 670.166 281.877 669.218L281.846 669.186Z" fill="#2BA7DF" fill-opacity="0.15"/>
<path d="M319.258 692.076C319.258 693.972 318.784 695.395 318.184 696.755C317.552 698.051 316.762 699.189 315.814 700.169C314.866 701.149 313.76 701.971 312.464 702.635C311.169 703.267 309.715 703.773 307.819 703.836C307.819 701.94 308.293 700.485 308.894 699.157C309.526 697.861 310.316 696.723 311.264 695.743C312.212 694.763 313.317 693.941 314.613 693.277C315.94 692.645 317.362 692.139 319.258 692.076Z" fill="#2BA7DF" fill-opacity="0.15"/>
<path d="M168.883 697.166C170.716 697.355 171.98 697.861 173.18 698.399C174.349 698.968 175.329 699.632 176.214 700.422C177.098 701.212 177.888 702.129 178.552 703.204C179.216 704.342 179.847 705.544 180.258 707.346C178.457 707.82 176.972 707.599 175.582 707.188C174.223 706.745 172.991 706.049 171.98 705.101C170.968 704.184 170.115 703.046 169.547 701.75C168.978 700.422 168.63 698.968 168.883 697.134V697.166Z" fill="#2BA7DF" fill-opacity="0.15"/>
<path d="M149.197 729.856C150.714 729.129 151.946 729.002 153.116 729.002C154.253 729.034 155.296 729.318 156.244 729.761C157.192 730.204 158.045 730.867 158.772 731.753C159.498 732.67 160.162 733.713 160.509 735.357C158.993 736.084 157.76 736.21 156.591 736.21C155.454 736.179 154.411 735.894 153.463 735.42C152.515 734.946 151.662 734.314 150.935 733.428C150.209 732.511 149.545 731.468 149.197 729.824V729.856Z" fill="#2BA7DF" fill-opacity="0.15"/>
<path d="M144.047 768.806C145.121 767.193 146.322 766.245 147.554 765.423C148.818 764.633 150.114 764.095 151.504 763.779C152.863 763.431 154.285 763.336 155.77 763.463C157.255 763.621 158.772 763.937 160.446 764.886C159.404 766.498 158.171 767.478 156.939 768.3C155.675 769.09 154.379 769.628 152.989 769.944C151.63 770.26 150.208 770.387 148.723 770.26C147.238 770.102 145.722 769.786 144.047 768.837V768.806Z" fill="#2BA7DF" fill-opacity="0.15"/>
<path d="M148.376 962.987C147.46 960.173 145.943 957.549 144.079 955.178C143.099 953.945 143.289 952.111 144.553 951.131C145.785 950.151 147.618 950.341 148.597 951.605C150.841 954.482 152.642 957.707 153.779 961.216C154.253 962.702 153.432 964.315 151.947 964.789C150.461 965.263 148.85 964.473 148.376 962.987Z" fill="#2BA7DF" fill-opacity="0.15"/>
<path d="M132.166 946.136C129.385 944.966 126.447 944.239 123.54 944.113C121.897 944.049 120.633 942.627 120.696 940.983C120.759 939.339 122.181 938.074 123.824 938.137C127.553 938.358 131.123 939.275 134.473 940.698C135.958 941.33 136.653 943.069 136.021 944.555C135.389 946.041 133.651 946.737 132.166 946.104V946.136Z" fill="#2BA7DF" fill-opacity="0.15"/>
<path d="M110.553 948.697C108.499 950.625 106.919 953.091 105.877 955.81C105.276 957.391 103.475 958.181 101.895 957.581C100.315 956.98 99.5254 955.178 100.126 953.597C101.484 950.119 103.602 946.863 106.382 944.271C107.614 943.132 109.542 943.196 110.679 944.429C111.817 945.662 111.754 947.59 110.521 948.728L110.553 948.697Z" fill="#2BA7DF" fill-opacity="0.15"/>
<path d="M252.618 964.093L257.515 955.652L257.61 955.494C258.116 954.609 259.253 954.293 260.138 954.83C261.023 955.336 261.307 956.443 260.833 957.328L255.999 966.212C255.462 967.16 254.292 967.508 253.313 967.002C252.365 966.465 252.017 965.295 252.523 964.315C252.523 964.315 252.523 964.315 252.523 964.283L252.618 964.125V964.093Z" fill="#2BA7DF" fill-opacity="0.15"/>
<path d="M263.898 940.635L266.711 931.245V931.119C266.995 930.328 267.816 929.886 268.606 930.107C269.396 930.328 269.839 931.15 269.618 931.941L266.995 941.678C266.774 942.563 265.857 943.069 264.973 942.848C264.088 942.595 263.582 941.71 263.803 940.824C263.803 940.824 263.803 940.824 263.803 940.793V940.666L263.898 940.635Z" fill="#2BA7DF" fill-opacity="0.15"/>
<path d="M269.776 915.153L270.566 905.321V905.257C270.629 904.72 271.103 904.309 271.64 904.34C272.177 904.372 272.556 904.846 272.556 905.384L272.145 915.406C272.145 916.07 271.577 916.576 270.913 916.544C270.249 916.544 269.744 915.975 269.776 915.311C269.776 915.311 269.776 915.311 269.776 915.279V915.185V915.153Z" fill="#2BA7DF" fill-opacity="0.15"/>
<path d="M270.155 888.881L268.859 879.048C268.828 878.764 269.017 878.511 269.27 878.479C269.523 878.448 269.744 878.606 269.776 878.859L271.45 888.722C271.513 889.102 271.261 889.418 270.913 889.481C270.534 889.545 270.218 889.292 270.155 888.944V888.881Z" fill="#2BA7DF" fill-opacity="0.15"/>
<path d="M265.068 862.989L264.688 861.786L265.131 862.957V862.989H265.099H265.068Z" fill="#2BA7DF" fill-opacity="0.15"/>
<path d="M-1.80931 676.584L1.88765 685.911C2.10884 686.448 1.82445 687.049 1.31889 687.27C0.78172 687.491 0.181357 687.207 -0.039829 686.701C-0.039829 686.701 -0.039829 686.701 -0.039829 686.669V686.574L-3.23124 677.216V677.153C-3.38923 676.742 -3.16803 676.3 -2.75726 676.141C-2.34649 676.015 -1.93572 676.205 -1.77773 676.584H-1.80931Z" fill="#2BA7DF" fill-opacity="0.15"/>
<path d="M6.3745 701.971L8.04919 711.898C8.20718 712.815 7.57522 713.669 6.69047 713.827C5.77413 713.985 4.92098 713.353 4.76299 712.467C4.76299 712.467 4.76299 712.436 4.76299 712.404V712.278L3.53067 702.509V702.414C3.40428 701.623 3.97304 700.896 4.76299 700.801C5.52134 700.706 6.2481 701.244 6.3745 702.003V701.971Z" fill="#2BA7DF" fill-opacity="0.15"/>
<path d="M9.09199 728.654L8.71281 738.74C8.68121 739.909 7.67008 740.858 6.50095 740.795C5.33183 740.763 4.38388 739.751 4.44708 738.582C4.44708 738.582 4.44708 738.55 4.44708 738.518V738.36L5.17384 728.591V728.433C5.26864 727.358 6.21657 726.536 7.2909 726.631C8.33364 726.694 9.15519 727.611 9.09199 728.654Z" fill="#2BA7DF" fill-opacity="0.15"/>
<path d="M6.27972 755.432L3.81508 765.265C3.4675 766.593 2.14039 767.415 0.781674 767.067C-0.545443 766.719 -1.36699 765.391 -1.01941 764.032C-1.01941 764.032 -1.01941 764 -1.01941 763.969L-0.956227 763.779L1.66641 754.389L1.7296 754.2C2.07718 752.935 3.37271 752.208 4.63664 752.556C5.86896 752.903 6.5957 754.168 6.27972 755.401V755.432Z" fill="#2BA7DF" fill-opacity="0.15"/>
<path d="M6.24806 784.708C8.27033 787.49 10.0714 790.462 11.5881 793.529C12.1569 794.667 11.6829 796.027 10.577 796.596C9.47107 797.133 8.11235 796.722 7.54359 795.616C6.05848 792.802 4.32058 790.114 2.3931 787.585C1.57155 786.542 1.79273 785.024 2.83547 784.202C3.8782 783.38 5.39493 783.602 6.21648 784.645C6.21648 784.645 6.21646 784.677 6.24806 784.708Z" fill="#2BA7DF" fill-opacity="0.15"/>
<path d="M17.1179 809.684C17.813 813.036 18.2238 816.418 18.4134 819.833C18.4766 820.845 17.6866 821.73 16.6755 821.761C15.6959 821.825 14.8428 821.066 14.748 820.086C14.4636 816.861 13.9581 813.668 13.1997 810.57C12.9469 809.495 13.6105 808.388 14.6848 808.135C15.7591 807.882 16.8651 808.546 17.1179 809.621V809.684Z" fill="#2BA7DF" fill-opacity="0.15"/>
<path d="M17.1495 836.715L14.4636 846.485C14.274 847.18 13.5789 847.559 12.8837 847.37C12.2202 847.18 11.841 846.516 11.9674 845.852V845.694L14.1161 836.178V835.988C14.3372 835.166 15.1588 834.629 15.9803 834.818C16.8019 835.008 17.339 835.83 17.1495 836.652V836.715Z" fill="#2BA7DF" fill-opacity="0.15"/>
<path d="M7.41729 861.691L1.88763 870.038C1.69805 870.322 1.31886 870.386 1.03447 870.196C0.750092 870.006 0.686904 869.658 0.844894 869.374V869.311L5.90057 860.838L5.96378 860.743C6.21657 860.332 6.75372 860.206 7.1645 860.427C7.57527 860.68 7.70166 861.217 7.48047 861.628C7.48047 861.628 7.48047 861.628 7.48047 861.66L7.41729 861.691Z" fill="#2BA7DF" fill-opacity="0.15"/>
<path d="M424.637 703.9L426.975 694.225C427.039 693.972 427.291 693.814 427.576 693.878C427.829 693.941 427.987 694.194 427.923 694.478C427.923 694.478 427.923 694.478 427.923 694.51L424.669 703.931L424.637 703.9Z" fill="#2BA7DF" fill-opacity="0.15"/>
<path d="M432.347 678.449L436.328 669.249C436.644 668.522 437.498 668.174 438.256 668.491C438.983 668.807 439.33 669.66 439.014 670.419C439.014 670.451 439.014 670.482 438.983 670.514V670.577L434.369 679.335V679.398C434.053 679.935 433.39 680.125 432.853 679.872C432.347 679.619 432.126 678.987 432.347 678.481V678.449Z" fill="#2BA7DF" fill-opacity="0.15"/>
<path d="M444.259 654.517L449.726 646.075C450.39 645.064 451.748 644.779 452.759 645.443C453.77 646.107 454.055 647.466 453.391 648.478C453.391 648.478 453.36 648.541 453.328 648.573L453.265 648.668L447.514 656.635L447.451 656.73C446.819 657.583 445.618 657.773 444.765 657.172C443.944 656.572 443.722 655.433 444.291 654.58L444.259 654.517Z" fill="#2BA7DF" fill-opacity="0.15"/>
<path d="M460.059 632.828L466.884 625.399C467.895 624.324 469.57 624.229 470.675 625.241C471.781 626.253 471.845 627.928 470.833 629.035C470.833 629.035 470.802 629.066 470.77 629.098L470.644 629.224L463.787 636.18L463.692 636.275C462.713 637.255 461.133 637.255 460.153 636.275C459.205 635.326 459.174 633.809 460.059 632.828Z" fill="#2BA7DF" fill-opacity="0.15"/>
<path d="M479.333 614.017L487.359 607.852C488.655 606.841 490.551 607.094 491.53 608.421C492.541 609.718 492.288 611.615 490.961 612.595C490.961 612.595 490.961 612.595 490.93 612.626L490.772 612.753L482.904 618.507L482.746 618.602C481.482 619.55 479.681 619.266 478.733 617.969C477.817 616.705 478.069 614.934 479.302 614.017H479.333Z" fill="#2BA7DF" fill-opacity="0.15"/>
<path d="M501.705 598.905L510.773 594.353C512.322 593.594 514.186 594.195 514.944 595.744C515.703 597.293 515.102 599.158 513.554 599.917L513.364 600.012L504.643 604.311L504.454 604.406C502.937 605.165 501.104 604.533 500.346 603.015C499.588 601.498 500.22 599.664 501.736 598.905H501.705Z" fill="#2BA7DF" fill-opacity="0.15"/>
<path d="M526.604 588.282L536.431 585.658C538.074 585.216 539.78 586.196 540.223 587.871C540.665 589.515 539.685 591.223 538.042 591.665L537.821 591.729L528.468 594.289L528.247 594.353C526.572 594.827 524.834 593.815 524.392 592.14C523.95 590.464 524.929 588.725 526.604 588.282Z" fill="#2BA7DF" fill-opacity="0.15"/>
<path d="M553.146 583.003L563.289 582.434C564.932 582.339 566.323 583.603 566.418 585.216C566.512 586.828 565.28 588.219 563.668 588.346H563.447L553.747 589.041H553.526C551.851 589.168 550.397 587.903 550.271 586.228C550.145 584.552 551.408 583.098 553.083 582.971H553.115L553.146 583.003Z" fill="#2BA7DF" fill-opacity="0.15"/>
<path d="M580.163 583.161L590.211 584.552C591.664 584.742 592.675 586.101 592.486 587.555C592.296 588.978 590.969 589.99 589.547 589.832H589.358L579.689 588.693H579.499C577.982 588.504 576.876 587.113 577.066 585.595C577.256 584.078 578.614 582.971 580.163 583.161C580.163 583.161 580.194 583.161 580.226 583.161H580.163Z" fill="#2BA7DF" fill-opacity="0.15"/>
<path d="M606.547 588.567L616.09 591.918C617.227 592.329 617.796 593.562 617.417 594.669C617.037 595.775 615.837 596.344 614.731 596.028L614.573 595.965L605.251 593.056L605.093 592.993C603.861 592.614 603.166 591.286 603.545 590.053C603.924 588.82 605.251 588.124 606.484 588.504C606.484 588.504 606.547 588.504 606.579 588.504L606.547 588.567Z" fill="#2BA7DF" fill-opacity="0.15"/>
<path d="M631.225 599.19L639.756 604.501C640.42 604.912 640.61 605.797 640.199 606.43C639.82 607.062 638.998 607.283 638.335 606.936L638.24 606.872L629.614 602.225L629.487 602.162C628.634 601.719 628.35 600.676 628.792 599.822C629.234 598.969 630.277 598.684 631.13 599.127C631.13 599.127 631.193 599.158 631.225 599.19Z" fill="#2BA7DF" fill-opacity="0.15"/>
<path d="M652.87 614.903L659.916 621.984C660.074 622.142 660.074 622.427 659.916 622.585C659.758 622.743 659.505 622.743 659.347 622.585L651.858 616.104H651.795C651.448 615.756 651.416 615.25 651.701 614.934C651.985 614.586 652.49 614.555 652.838 614.839C652.838 614.839 652.838 614.839 652.87 614.871V614.903Z" fill="#2BA7DF" fill-opacity="0.15"/>
<path d="M578.393 942.658L581.49 952.08C581.553 952.301 581.458 952.491 581.269 952.522C581.111 952.585 580.921 952.491 580.858 952.301L578.362 942.658H578.393Z" fill="#2BA7DF" fill-opacity="0.15"/>
<path d="M693.126 964.915L697.044 956.031L697.139 955.842C697.802 954.356 699.54 953.66 701.057 954.324C702.542 954.988 703.237 956.727 702.573 958.245V958.276L698.308 967.508C697.644 968.962 695.938 969.594 694.484 968.931C693.062 968.267 692.43 966.591 693.062 965.137L693.157 964.915H693.126Z" fill="#2BA7DF" fill-opacity="0.15"/>
<path d="M702.573 940.856C703.332 937.884 703.806 934.786 703.711 931.909C703.648 930.202 704.975 928.779 706.681 928.716C708.387 928.653 709.809 929.98 709.872 931.688C709.967 935.45 709.399 939.023 708.482 942.437C708.04 944.049 706.397 945.029 704.754 944.618C703.142 944.176 702.163 942.532 702.573 940.888V940.856Z" fill="#2BA7DF" fill-opacity="0.15"/>
<path d="M699.129 924.543C696.601 925.934 694.389 927.894 692.557 930.17C691.482 931.53 689.492 931.751 688.133 930.676C686.774 929.601 686.553 927.609 687.627 926.25C689.934 923.373 692.809 920.875 696.096 919.073C697.612 918.251 699.508 918.789 700.33 920.306C701.151 921.824 700.614 923.689 699.097 924.543H699.129Z" fill="#2BA7DF" fill-opacity="0.15"/>
<path d="M686.68 943.733C686.206 946.705 686.142 949.772 686.553 952.744C686.774 954.451 685.574 956 683.867 956.253C682.161 956.474 680.613 955.304 680.36 953.597C679.854 949.993 679.918 946.357 680.486 942.785C680.739 941.077 682.351 939.908 684.057 940.161C685.763 940.414 686.932 942.026 686.68 943.733Z" fill="#2BA7DF" fill-opacity="0.15"/>
<path d="M810.007 962.576L817.938 956.822L818.032 956.759C818.633 956.316 819.486 956.443 819.96 957.075C820.402 957.676 820.276 958.498 819.707 958.94L811.839 965.263C811.144 965.832 810.133 965.706 809.564 965.01C808.995 964.315 809.122 963.303 809.817 962.734C809.817 962.734 809.849 962.734 809.88 962.702L810.007 962.608V962.576Z" fill="#2BA7DF" fill-opacity="0.15"/>
<path d="M829.661 945.472C831.778 942.974 833.737 940.319 835.475 937.568C835.696 937.22 836.138 937.126 836.454 937.347C836.77 937.537 836.865 937.979 836.707 938.295C835.064 941.204 833.2 944.018 831.146 946.673C830.83 947.084 830.229 947.179 829.787 946.863C829.345 946.547 829.281 945.946 829.597 945.504C829.597 945.504 829.597 945.504 829.597 945.472H829.661Z" fill="#2BA7DF" fill-opacity="0.15"/>
<path d="M842.458 922.709L844.196 915.912L842.9 922.835C842.9 922.835 842.742 923.057 842.616 923.025C842.489 922.994 842.394 922.867 842.426 922.741L842.458 922.709Z" fill="#2BA7DF" fill-opacity="0.15"/>
<path d="M-3.16839 410.004L5.86864 406.463L6.08983 406.368C7.32215 405.894 8.71246 406.495 9.21803 407.728C9.7236 408.961 9.09163 410.352 7.85931 410.858C7.85931 410.858 7.82772 410.858 7.79613 410.858L-1.74649 414.335C-2.94721 414.778 -4.24273 414.146 -4.6851 412.976C-5.09588 411.806 -4.5271 410.51 -3.38957 410.067L-3.16839 409.972V410.004Z" fill="#2BA7DF" fill-opacity="0.15"/>
<path d="M20.0246 398.686L27.8609 392.995L28.0821 392.837C29.2828 391.952 30.9575 392.236 31.8422 393.438C32.727 394.639 32.4426 396.315 31.2419 397.2C31.2419 397.2 31.2419 397.2 31.2103 397.2L22.8684 403.08C21.6993 403.902 20.0562 403.618 19.2346 402.448C18.4131 401.278 18.6975 399.666 19.835 398.844L20.0562 398.686H20.0246Z" fill="#2BA7DF" fill-opacity="0.15"/>
<path d="M39.489 381.898L45.4294 374.31L45.619 374.057C46.5669 372.856 48.3364 372.635 49.5372 373.583C50.7379 374.532 50.9591 376.302 50.0111 377.503L43.6283 385.534C42.6804 386.735 40.9425 386.925 39.7734 385.976C38.6042 385.028 38.3831 383.321 39.331 382.119L39.5206 381.866L39.489 381.898Z" fill="#2BA7DF" fill-opacity="0.15"/>
<path d="M53.2341 360.368C53.8976 358.914 54.4032 357.396 54.8772 355.91L56.3307 351.421L56.4571 351.073C56.9626 349.556 58.5741 348.734 60.0909 349.208C61.6076 349.682 62.4291 351.326 61.9551 352.844L60.312 357.807C59.7749 359.483 59.2061 361.095 58.4793 362.644V362.708C57.7842 364.13 56.0779 364.763 54.656 364.099C53.2341 363.435 52.6021 361.759 53.2657 360.336L53.2341 360.368Z" fill="#2BA7DF" fill-opacity="0.15"/>
<path d="M57.9738 335.866C57.8158 332.768 57.3734 329.67 56.5203 326.729C56.0779 325.117 56.9943 323.473 58.5742 323.03C60.1541 322.588 61.8287 323.505 62.2711 325.085C63.2191 328.563 63.693 332.104 63.851 335.613C63.9142 337.257 62.6503 338.617 61.0072 338.68C59.3957 338.743 58.0054 337.478 57.9422 335.866H57.9738Z" fill="#2BA7DF" fill-opacity="0.15"/>
<path d="M49.0632 314.083C46.883 312.123 44.3867 310.574 41.6693 309.594C40.0578 309.025 39.2046 307.254 39.7734 305.61C40.3422 303.966 42.1117 303.144 43.7548 303.713C47.2621 305.01 50.4851 307.033 53.2026 309.531C54.4349 310.669 54.5297 312.629 53.3605 313.862C52.223 315.095 50.2955 315.158 49.0316 314.052L49.0632 314.083Z" fill="#2BA7DF" fill-opacity="0.15"/>
<path d="M27.229 309.088C24.4168 309.847 21.7309 311.143 19.4559 312.882C18.0972 313.925 16.1381 313.672 15.0954 312.313C14.0526 310.953 14.3054 309.025 15.6325 307.981C18.5711 305.674 21.9837 303.998 25.5543 303.018C27.229 302.544 28.9669 303.524 29.4409 305.199C29.9148 306.875 28.9353 308.614 27.2606 309.088H27.229Z" fill="#2BA7DF" fill-opacity="0.15"/>
<path d="M11.5563 324.896C10.7663 327.741 10.482 330.713 10.7663 333.653C10.9243 335.297 9.72361 336.783 8.08051 336.941C6.43741 337.099 4.9839 335.898 4.79431 334.285C4.41514 330.586 4.73112 326.856 5.71066 323.315C6.15303 321.702 7.82773 320.722 9.43923 321.165C11.0507 321.608 12.0303 323.283 11.5879 324.896H11.5563Z" fill="#2BA7DF" fill-opacity="0.15"/>
<path d="M16.7068 346.805C18.6975 349.018 21.099 350.947 23.7216 352.559C25.0803 353.381 25.5227 355.183 24.6695 356.543C23.848 357.902 22.0785 358.345 20.7198 357.523C17.6864 355.689 14.811 353.476 12.3463 350.757C11.272 349.556 11.3352 347.69 12.5359 346.615C13.7366 345.54 15.6009 345.604 16.6752 346.805H16.7068Z" fill="#2BA7DF" fill-opacity="0.15"/>
<path d="M38.2251 358.313L47.6729 359.989L47.9888 360.052C49.5055 360.305 50.5167 361.759 50.2323 363.277C49.9795 364.794 48.526 365.774 47.0409 365.521L36.898 363.814C35.3497 363.561 34.3385 362.107 34.5913 360.558C34.8441 359.009 36.2976 357.997 37.8459 358.25L38.1935 358.313H38.2251Z" fill="#2BA7DF" fill-opacity="0.15"/>
<path d="M63.8195 360.621L73.5517 360.115H73.7413C75.2264 360.02 76.4903 361.158 76.5535 362.644C76.6167 364.13 75.5108 365.363 74.0257 365.458L63.9459 366.059C62.4608 366.154 61.1653 365.015 61.0705 363.498C60.9757 362.012 62.1132 360.716 63.6299 360.621H63.8195Z" fill="#2BA7DF" fill-opacity="0.15"/>
<path d="M89.6667 357.902L99.1777 355.721H99.3356C100.631 355.373 101.895 356.195 102.179 357.459C102.464 358.724 101.706 359.989 100.442 360.305L90.6462 362.802C89.3191 363.15 87.9288 362.328 87.6128 361C87.2652 359.672 88.0868 358.281 89.4139 357.965C89.4139 357.965 89.4139 357.965 89.4455 357.965H89.6351L89.6667 357.902Z" fill="#2BA7DF" fill-opacity="0.15"/>
<path d="M114.566 350.504L123.413 346.426L123.571 346.362C124.614 345.888 125.815 346.362 126.32 347.374C126.794 348.386 126.352 349.587 125.372 350.093L116.304 354.551C115.229 355.088 113.902 354.646 113.397 353.539C112.86 352.464 113.302 351.136 114.408 350.63C114.408 350.63 114.408 350.63 114.439 350.63L114.597 350.536L114.566 350.504Z" fill="#2BA7DF" fill-opacity="0.15"/>
<path d="M137.285 337.953C139.939 336.056 142.404 333.938 144.932 331.883L145.026 331.788C145.785 331.187 146.859 331.314 147.459 332.041C148.06 332.768 147.933 333.843 147.238 334.475C144.679 336.657 142.183 338.933 139.465 340.956C138.644 341.589 137.474 341.399 136.874 340.577C136.274 339.755 136.432 338.585 137.253 337.984C137.253 337.984 137.253 337.984 137.285 337.984V337.953Z" fill="#2BA7DF" fill-opacity="0.15"/>
<path d="M156.275 320.217L162.184 312.408L162.247 312.313C162.69 311.744 163.511 311.617 164.08 312.06C164.649 312.502 164.775 313.293 164.364 313.862L158.614 322.145C158.14 322.841 157.192 322.999 156.496 322.524C155.801 322.05 155.643 321.102 156.117 320.406C156.117 320.406 156.117 320.406 156.149 320.375L156.244 320.248L156.275 320.217Z" fill="#2BA7DF" fill-opacity="0.15"/>
<path d="M170.242 298.149L173.875 288.981V288.917C174.065 288.506 174.539 288.317 174.918 288.475C175.329 288.633 175.518 289.076 175.36 289.487L172.043 298.939C171.853 299.445 171.284 299.73 170.779 299.54C170.273 299.351 169.989 298.781 170.178 298.276C170.178 298.276 170.178 298.276 170.178 298.244V298.149H170.242Z" fill="#2BA7DF" fill-opacity="0.15"/>
<path d="M177.636 273.015L178.457 263.151C178.457 263.151 178.552 262.961 178.647 262.961C178.741 262.961 178.836 263.056 178.805 263.151L178.52 273.141C178.52 273.394 178.299 273.584 178.046 273.584C177.793 273.584 177.604 273.363 177.604 273.11V273.047L177.636 273.015Z" fill="#2BA7DF" fill-opacity="0.15"/>
<path d="M158.076 470.452C154.537 476.017 150.714 481.202 146.891 486.387L135.421 501.815L123.793 517.085C119.874 522.175 115.925 527.265 111.564 532.197C113.65 525.937 116.493 520.025 119.685 514.334C122.876 508.644 126.447 503.174 130.397 497.958C134.315 492.741 138.612 487.809 143.194 483.162C147.775 478.514 152.673 474.151 158.108 470.421L158.076 470.452Z" fill="#2BA7DF" fill-opacity="0.15"/>
<path d="M105.087 488.884C105.75 490.623 106.919 491.603 108.215 492.046C109.479 492.551 110.901 492.583 112.196 492.457C113.492 492.298 114.724 491.856 115.482 491.287C116.272 490.686 116.462 490.212 116.588 489.453C116.651 488.663 116.557 488.189 115.925 487.43C115.324 486.703 114.218 486.007 112.986 485.564C111.754 485.153 110.363 484.869 109.005 485.09C107.646 485.217 106.287 485.912 105.245 487.461C104.834 485.628 105.94 483.446 107.741 482.245C109.51 481.075 111.659 480.538 113.776 480.632C115.893 480.759 118.073 481.423 120.001 482.972C120.475 483.383 120.886 483.889 121.328 484.363C121.707 484.901 122.023 485.501 122.339 486.102C122.56 486.766 122.75 487.43 122.876 488.094C122.908 488.758 122.939 489.422 122.876 490.117C122.75 490.781 122.592 491.445 122.402 492.077C122.149 492.71 121.802 493.31 121.454 493.911C121.012 494.417 120.57 494.954 120.064 495.397C119.558 495.776 119.021 496.156 118.484 496.44C116.272 497.547 113.997 497.705 111.912 497.357C109.826 496.978 107.867 495.997 106.382 494.448C104.897 492.899 104.328 490.528 105.118 488.821L105.087 488.884Z" fill="#2BA7DF" fill-opacity="0.15"/>
<path d="M148.407 518.729C150.493 519.772 149.956 515.694 149.482 516.231C149.482 516.358 149.387 516.421 149.197 516.484C149.071 516.579 149.008 516.706 148.913 516.864C148.755 517.18 148.723 517.78 148.786 518.318C148.881 518.855 149.134 519.298 149.355 519.393C149.64 519.583 150.208 519.867 150.746 520.025C151.915 520.373 153.589 520.278 155.359 520.152H155.454H155.77C157.034 520.215 158.519 519.266 159.467 517.686C160.415 516.137 160.699 514.303 159.972 513.007C159.372 511.647 157.413 510.604 155.138 510.604C152.894 510.604 150.366 511.457 148.881 513.923C148.723 510.92 151.409 508.138 154.506 507.189C156.054 506.715 157.792 506.494 159.561 506.905C161.299 507.284 163.132 508.264 164.364 509.845C165.597 511.426 166.229 513.449 166.26 515.378C166.323 517.306 165.755 519.108 164.902 520.752C164.017 522.333 162.784 523.787 161.11 524.831C159.467 525.874 157.35 526.506 155.264 526.253H155.643C153.558 526.285 151.22 526.159 148.755 525.115C147.491 524.546 146.353 523.787 145.406 522.46C144.394 521.037 144.236 519.456 144.363 518.065C144.552 516.674 145.153 515.283 146.385 514.24C147.712 513.228 149.513 512.817 151.156 514.145C151.915 514.904 151.946 515.789 151.883 516.421C151.82 517.085 151.567 517.654 151.251 518.16C150.904 518.634 150.524 519.14 149.861 519.361C149.166 519.614 148.565 519.108 148.376 518.697L148.407 518.729Z" fill="#2BA7DF" fill-opacity="0.15"/>
<path d="M663.487 -6.33765L664.119 3.43146V3.58955C664.182 4.53801 663.487 5.32839 662.539 5.39162C661.591 5.45485 660.801 4.75931 660.738 3.81085C660.738 3.81085 660.738 3.81085 660.738 3.77923L660.295 -6.27443C660.264 -7.15965 660.927 -7.8868 661.812 -7.91841C662.665 -7.95003 663.392 -7.28613 663.455 -6.43251V-6.30605L663.487 -6.33765Z" fill="#2BA7DF" fill-opacity="0.15"/>
<path d="M667.057 19.4604C667.5 21.0412 667.91 22.5903 668.384 24.1711L669.901 28.8185V28.9134C670.28 29.9567 669.711 31.0948 668.669 31.4426C667.626 31.7904 666.489 31.2213 666.141 30.178V30.1464L664.656 25.3092C664.182 23.6968 663.803 22.0529 663.392 20.4089C663.139 19.3972 663.739 18.3539 664.751 18.1009C665.73 17.848 666.773 18.4171 667.057 19.3972V19.492V19.4604Z" fill="#2BA7DF" fill-opacity="0.15"/>
<path d="M676.473 43.6777L681.403 52.0874L681.497 52.2455C682.129 53.352 681.782 54.7431 680.676 55.407C679.57 56.0393 678.18 55.6915 677.516 54.585V54.5534L672.618 45.7011C672.018 44.6578 672.429 43.3299 673.472 42.7292C674.514 42.1602 675.81 42.5079 676.41 43.5196L676.505 43.6777H676.473Z" fill="#2BA7DF" fill-opacity="0.15"/>
<path d="M691.103 65.1129L697.739 72.258L697.897 72.416C698.876 73.4594 698.813 75.1033 697.77 76.0834C696.728 77.0635 695.085 77.0002 694.105 75.9569C694.105 75.9569 694.105 75.9253 694.074 75.9253L687.343 68.3376C686.427 67.326 686.522 65.7452 687.564 64.8284C688.576 63.9431 690.124 64.0064 691.04 64.9864L691.167 65.1445L691.103 65.1129Z" fill="#2BA7DF" fill-opacity="0.15"/>
<path d="M709.904 82.9123L717.867 88.4765L718.056 88.603C719.289 89.4566 719.605 91.1955 718.72 92.4285C717.867 93.6615 716.129 93.9776 714.897 93.0924L706.618 87.1804C705.417 86.3267 705.133 84.6195 705.986 83.4181C706.839 82.2168 708.514 81.9322 709.746 82.7542L709.936 82.8807L709.904 82.9123Z" fill="#2BA7DF" fill-opacity="0.15"/>
<path d="M732.054 96.1907L736.541 98.0244C738.026 98.6251 739.511 99.289 741.028 99.7948C742.513 100.301 743.335 101.881 742.829 103.399C742.324 104.885 740.744 105.707 739.227 105.201H739.164C737.521 104.632 736.004 103.936 734.424 103.304L729.716 101.344C728.294 100.743 727.599 99.0993 728.199 97.6766C728.8 96.2539 730.411 95.59 731.833 96.1591L732.023 96.2539L732.054 96.1907Z" fill="#2BA7DF" fill-opacity="0.15"/>
<path d="M756.574 103.494L766.149 104.284H766.465C768.076 104.442 769.277 105.865 769.15 107.477C769.024 109.09 767.602 110.291 765.99 110.165L755.784 109.216C754.204 109.058 753.004 107.667 753.162 106.055C753.32 104.474 754.71 103.304 756.29 103.431H756.606L756.574 103.494Z" fill="#2BA7DF" fill-opacity="0.15"/>
<path d="M782.042 103.178C785.171 102.64 788.267 101.881 791.269 100.901C792.88 100.396 794.587 101.249 795.092 102.862C795.598 104.474 794.745 106.181 793.133 106.687C789.815 107.73 786.466 108.552 783.054 109.121C781.41 109.406 779.862 108.299 779.578 106.655C779.293 105.011 780.399 103.494 782.011 103.209L782.042 103.178Z" fill="#2BA7DF" fill-opacity="0.15"/>
<path d="M805.33 94.0409C807.89 92.2704 810.259 90.2786 812.376 88.034C813.577 86.7693 815.568 86.7061 816.8 87.9075C818.033 89.1089 818.127 91.1006 816.927 92.3336C814.462 94.9261 811.745 97.2024 808.838 99.1625C807.416 100.111 805.488 99.7633 804.54 98.3406C803.592 96.9179 803.94 95.021 805.33 94.0409Z" fill="#2BA7DF" fill-opacity="0.15"/>
<path d="M820.624 75.2298C821.698 72.4476 822.235 69.6022 821.824 67.1046C821.54 65.429 822.646 63.8166 824.321 63.5321C825.995 63.2475 827.607 64.3857 827.891 66.0613C828.586 70.1713 827.733 74.06 826.438 77.4428C825.837 79.0552 824.036 79.8772 822.425 79.2765C820.813 78.6758 819.992 76.8737 820.592 75.2614C820.592 75.2614 820.592 75.2614 820.592 75.2298H820.624Z" fill="#2BA7DF" fill-opacity="0.15"/>
<path d="M812.819 58.8846C810.038 58.2523 807.005 58.1891 804.098 58.6318C802.486 58.8847 800.938 57.7781 800.685 56.1657C800.432 54.5533 801.538 53.0042 803.15 52.7513C806.784 52.1506 810.512 52.1822 814.177 53.0042C815.821 53.352 816.832 54.9644 816.484 56.6084C816.137 58.2524 814.525 59.2641 812.882 58.9163H812.85L812.819 58.8846Z" fill="#2BA7DF" fill-opacity="0.15"/>
<path d="M790.353 64.7019C787.856 66.504 785.581 68.6538 783.559 70.9933C782.516 72.1947 780.715 72.3212 779.483 71.2779C778.282 70.2346 778.156 68.4325 779.167 67.2311C781.442 64.5438 784.033 62.1094 786.877 59.9912C788.172 59.0427 790.005 59.2957 790.953 60.5919C791.901 61.8881 791.648 63.7218 790.353 64.6702V64.7019Z" fill="#2BA7DF" fill-opacity="0.15"/>
<path d="M775.47 84.3034C774.269 87.212 773.353 90.247 772.721 93.3453C772.405 94.8629 770.92 95.8113 769.435 95.4952C767.95 95.179 766.97 93.7247 767.286 92.2072C767.981 88.7927 768.961 85.4415 770.256 82.1851C770.825 80.7308 772.468 80.0353 773.922 80.6044C775.375 81.1735 776.07 82.8175 775.502 84.2718L775.47 84.3034Z" fill="#2BA7DF" fill-opacity="0.15"/>
<path d="M771.836 108.995L772.184 111.334C772.31 112.093 772.342 112.884 772.563 113.642L773.669 118.258L773.732 118.511C774.08 119.965 773.195 121.388 771.741 121.736C770.319 122.084 768.866 121.198 768.518 119.776L767.286 114.749C767.065 113.927 767.002 113.042 766.844 112.188L766.465 109.596C766.243 108.11 767.255 106.719 768.74 106.497C770.225 106.276 771.615 107.288 771.836 108.774L771.868 109.026L771.836 108.995Z" fill="#2BA7DF" fill-opacity="0.15"/>
<path d="M779.83 132.864L785.17 140.863L785.329 141.116C786.055 142.223 785.771 143.708 784.665 144.467C783.559 145.194 782.106 144.91 781.347 143.835L775.47 135.425C774.68 134.287 774.964 132.706 776.102 131.916C777.239 131.126 778.819 131.41 779.609 132.548C779.609 132.548 779.609 132.548 779.609 132.58L779.799 132.864H779.83Z" fill="#2BA7DF" fill-opacity="0.15"/>
<path d="M796.135 152.687L803.687 158.821L803.845 158.947C804.761 159.674 804.888 161.002 804.161 161.919C803.434 162.804 802.139 162.962 801.222 162.267L793.196 156.038C792.217 155.28 792.059 153.889 792.786 152.909C793.544 151.928 794.934 151.77 795.914 152.497L796.104 152.656L796.135 152.687Z" fill="#2BA7DF" fill-opacity="0.15"/>
<path d="M817.464 167.325L826.343 171.34L826.501 171.403C827.417 171.814 827.828 172.889 827.417 173.806C827.006 174.691 825.964 175.102 825.047 174.723L815.726 170.771C814.746 170.36 814.304 169.222 814.715 168.242C815.125 167.262 816.263 166.819 817.243 167.23L817.432 167.325H817.464Z" fill="#2BA7DF" fill-opacity="0.15"/>
<path d="M841.921 176.051L851.558 177.727H851.684C852.474 177.885 853.011 178.643 852.885 179.434C852.759 180.224 852.032 180.73 851.242 180.635L841.257 179.244C840.372 179.118 839.74 178.296 839.867 177.41C839.993 176.525 840.815 175.893 841.699 176.019C841.699 176.019 841.699 176.019 841.731 176.019H841.889L841.921 176.051Z" fill="#2BA7DF" fill-opacity="0.15"/>
<path d="M839.424 386.767C836.517 388.379 833.642 390.055 830.735 391.572H830.703C830.387 391.762 829.976 391.636 829.819 391.319C829.661 391.003 829.787 390.592 830.103 390.434C830.103 390.434 830.135 390.434 830.166 390.434C833.263 389.138 836.391 388 839.456 386.798L839.424 386.767Z" fill="#2BA7DF" fill-opacity="0.15"/>
<path d="M817.053 400.741L809.375 406.842L809.28 406.937C808.458 407.601 807.226 407.475 806.562 406.621C805.899 405.799 806.025 404.566 806.878 403.902C806.91 403.902 806.973 403.839 807.005 403.807L815.347 398.18C816.042 397.706 816.99 397.895 817.464 398.591C817.906 399.255 817.78 400.14 817.148 400.646L817.053 400.709V400.741Z" fill="#2BA7DF" fill-opacity="0.15"/>
<path d="M797.525 418.066L791.048 425.369L790.921 425.495C789.942 426.602 788.204 426.728 787.098 425.717C785.992 424.737 785.866 422.998 786.877 421.891C786.877 421.86 786.94 421.828 786.972 421.796L794.05 414.557C794.998 413.576 796.546 413.576 797.525 414.557C798.473 415.473 798.505 416.959 797.652 417.939L797.525 418.066Z" fill="#2BA7DF" fill-opacity="0.15"/>
<path d="M781.347 438.363L776.228 446.614L776.102 446.804C775.217 448.258 773.321 448.701 771.868 447.784C770.414 446.899 769.972 445.002 770.888 443.548V443.516L776.386 434.98C777.271 433.589 779.104 433.21 780.494 434.095C781.853 434.98 782.263 436.782 781.41 438.173L781.284 438.363H781.347Z" fill="#2BA7DF" fill-opacity="0.15"/>
<path d="M769.055 461.126L765.516 470.168L765.422 470.389C764.79 472.002 762.989 472.76 761.409 472.16C759.829 471.527 759.039 469.757 759.639 468.176L763.241 458.66C763.873 457.016 765.674 456.194 767.318 456.826C768.961 457.459 769.751 459.261 769.15 460.905L769.055 461.157V461.126Z" fill="#2BA7DF" fill-opacity="0.15"/>
<path d="M761.093 485.723L759.228 495.27V495.46C758.881 496.978 757.396 497.989 755.879 497.705C754.394 497.42 753.383 495.966 753.636 494.48L755.247 484.458C755.5 482.814 757.048 481.707 758.691 481.96C760.334 482.213 761.44 483.762 761.188 485.406C761.188 485.406 761.188 485.47 761.188 485.501V485.723H761.093Z" fill="#2BA7DF" fill-opacity="0.15"/>
<path d="M757.554 511.457L757.396 521.227V521.385C757.396 522.586 756.385 523.566 755.152 523.535C753.983 523.535 753.035 522.586 753.004 521.416L752.593 511.299C752.53 509.94 753.604 508.77 754.963 508.739C756.322 508.675 757.491 509.75 757.522 511.11C757.522 511.141 757.522 511.205 757.522 511.236V511.426L757.554 511.457Z" fill="#2BA7DF" fill-opacity="0.15"/>
<path d="M758.502 537.54L759.955 547.309V547.372C760.05 547.941 759.671 548.447 759.102 548.542C758.565 548.605 758.091 548.289 757.965 547.783L755.437 538.046C755.216 537.192 755.721 536.339 756.574 536.149C757.428 535.928 758.281 536.433 758.47 537.287C758.47 537.35 758.47 537.382 758.502 537.445V537.572V537.54Z" fill="#2BA7DF" fill-opacity="0.15"/>
<path d="M763.81 563.37L763.905 563.686L763.779 563.37H763.81Z" fill="#2BA7DF" fill-opacity="0.15"/>
<path d="M704.375 271.466C709.209 277.188 714.012 282.879 719.036 288.348C724.092 293.818 729.179 299.224 734.456 304.441C744.978 314.905 756.006 324.832 767.539 334.096L762.768 337.194L754.394 307.412C751.74 297.454 748.991 287.495 746.368 277.536L745.642 274.817L748.264 273.963C762.073 269.442 775.913 265.016 789.816 260.748C796.767 258.63 803.719 256.512 810.702 254.52C817.685 252.497 824.668 250.442 831.683 248.576C824.984 251.422 818.191 254.046 811.429 256.733C804.667 259.452 797.873 262.013 791.08 264.605C777.492 269.727 763.842 274.722 750.129 279.591L752.024 276.018C754.9 285.914 757.617 295.873 760.43 305.8L768.455 335.676L770.952 344.908L763.684 338.775C752.182 329.069 741.376 318.573 731.391 307.318C726.43 301.69 721.627 295.904 717.14 289.898C712.622 283.922 708.261 277.82 704.28 271.497L704.375 271.466Z" fill="#2BA7DF" fill-opacity="0.15"/>
<path d="M582.691 763.494C586.293 754.863 588.599 745.79 589.168 736.621C589.832 727.485 588.947 718.285 586.577 709.559C585.945 707.409 585.345 705.101 584.492 703.331C583.67 701.497 582.375 699.884 581.237 699.347C580.194 698.873 579.152 699.094 578.393 700.106C577.54 701.212 576.94 703.204 576.718 705.228L574.759 732.954L573.78 746.896L568.724 733.808C565.217 724.766 558.423 716.893 549.765 712.372C547.617 711.298 545.31 710.223 543.193 709.654C541.044 709.085 539.054 709.085 537.758 709.938C536.336 710.792 535.673 712.088 535.673 714.143C535.736 716.166 536.399 718.443 537.442 720.592C538.485 722.742 539.78 724.766 541.392 726.631C543.098 728.591 544.805 730.551 546.574 732.48C550.05 736.337 553.684 740.099 557.412 743.735C564.806 751.133 572.832 757.867 581.079 764.38C571.979 759.068 563.447 752.809 555.232 746.138C551.187 742.723 547.269 739.182 543.446 735.483C541.55 733.618 539.717 731.721 537.885 729.793C535.926 727.801 534.251 725.43 532.892 722.932C531.533 720.403 530.459 717.621 530.269 714.364C530.238 712.72 530.364 710.981 531.154 709.274C531.944 707.599 533.271 706.113 534.756 705.164C537.948 703.078 541.708 703.299 544.552 703.963C547.522 704.658 550.018 705.765 552.578 707.03C562.563 712.214 570.652 721.003 574.57 731.658L568.535 732.511L569.672 718.569L570.241 711.582C570.494 709.179 570.589 707.093 570.968 704.437C571.41 701.876 572.01 699.189 574.064 696.596C575.075 695.332 576.75 694.194 578.551 693.846C580.289 693.467 582.28 693.751 583.765 694.636C586.767 696.375 588.094 698.968 589.137 701.339C590.148 703.868 590.59 706.113 591.159 708.484C593.276 717.874 593.497 727.611 592.044 737.001C590.495 746.359 587.493 755.496 582.691 763.526V763.494Z" fill="#2BA7DF" fill-opacity="0.15"/>
<path d="M322.765 213.61C317.299 205.991 313.539 197.17 311.232 187.938C309.02 178.707 308.388 168.969 309.715 159.453C310.095 157.05 310.347 154.774 311.137 152.181C311.99 149.715 313.096 147.028 315.94 145.036C317.362 144.056 319.321 143.582 321.091 143.835C322.892 144.025 324.661 145.005 325.767 146.174C328.042 148.577 328.864 151.233 329.527 153.731C330.128 156.355 330.412 158.441 330.854 160.812L332.024 167.705L334.33 181.52L328.232 181.173C331.234 170.234 338.564 160.781 348.107 154.774C350.54 153.288 352.941 151.992 355.848 151.043C358.629 150.158 362.358 149.621 365.739 151.423C367.319 152.213 368.772 153.604 369.688 155.216C370.605 156.86 370.921 158.599 371.016 160.243C371.079 163.5 370.257 166.377 369.12 169.001C367.982 171.625 366.497 174.122 364.696 176.272C363.021 178.327 361.347 180.382 359.609 182.406C356.133 186.389 352.499 190.278 348.739 194.008C341.124 201.375 333.13 208.33 324.503 214.369C332.182 207.16 339.607 199.794 346.369 191.795C349.813 187.875 353.099 183.828 356.228 179.687C357.839 177.632 359.387 175.545 360.904 173.427C362.358 171.467 363.495 169.317 364.348 167.104C365.201 164.891 365.675 162.551 365.549 160.528C365.391 158.473 364.601 157.24 363.116 156.513C361.757 155.786 359.798 155.944 357.681 156.702C355.596 157.43 353.384 158.694 351.33 159.959C343.083 165.207 336.953 173.617 334.235 182.911L330.286 196.38L328.137 182.564L323.871 155.09C323.461 153.098 322.702 151.138 321.754 150.126C320.901 149.178 319.858 149.051 318.847 149.621C317.773 150.253 316.635 151.992 315.94 153.857C315.245 155.691 314.834 158.062 314.392 160.243C312.749 169.127 312.654 178.359 314.076 187.432C315.403 196.538 318.436 205.358 322.765 213.673V213.61Z" fill="#2BA7DF" fill-opacity="0.15"/>
<path d="M-38.1786 201.185C-43.9295 202.797 -49.8067 204.062 -55.8419 204.252C-58.8437 204.315 -61.9087 204.283 -64.9421 203.493C-65.7005 203.303 -66.4588 203.05 -67.2488 202.639C-67.628 202.481 -68.0071 202.165 -68.3863 201.881C-68.7971 201.47 -69.0815 201.027 -69.2395 200.648C-70.0294 199.035 -70.0926 197.233 -69.8082 195.621C-69.1763 192.364 -67.7228 189.551 -65.6373 187.021C-63.5202 184.555 -60.708 182.722 -57.7378 181.584C-51.7658 179.307 -45.6041 179.023 -39.7269 178.359L-41.4648 181.109C-43.4555 176.272 -43.8979 170.898 -42.8235 165.744C-41.7808 160.623 -39.095 155.659 -34.7976 152.245C-30.4371 148.767 -24.7495 147.439 -19.3778 148.071C-14.0377 148.672 -8.53968 151.486 -5.44307 156.449L-10.562 158.757C-13.469 149.494 -10.9095 139.377 -5.47468 131.916C-0.0714188 124.423 8.68124 118.796 18.4766 118.543C28.2404 118.258 37.309 123.38 43.1547 130.588C49.0319 137.733 52.2865 147.566 50.2642 157.082L45.3981 154.047C47.9892 152.023 50.7382 149.842 54.0244 148.166C55.6675 147.344 57.437 146.617 59.3329 146.206C61.2603 145.732 63.3142 145.669 65.3049 145.922C69.1914 146.427 73.3624 148.451 75.5426 152.466C76.5222 154.426 77.0593 156.608 76.7749 158.852C76.5222 161.065 75.6374 163.057 74.4683 164.701C72.0984 167.894 69.1282 170.044 66 171.751C62.9666 173.458 59.4276 174.66 56.331 175.545L37.467 181.362C24.891 185.219 12.315 189.266 -0.450577 192.712C-13.1846 196.19 -26.0134 199.509 -39.0634 201.47C-26.2346 198.371 -13.6586 194.514 -1.20895 190.278C11.2407 186.01 23.6587 181.647 36.0767 177.221L54.8143 170.803C58.0057 169.791 60.7232 168.748 63.409 167.167C66.0316 165.649 68.4331 163.753 69.9498 161.603C71.4033 159.421 71.6561 157.208 70.5186 155.185C69.5074 153.32 67.1376 152.023 64.5465 151.739C61.9871 151.391 59.3961 152.15 56.7734 153.541C54.1824 154.9 51.7177 156.829 49.1583 158.852L42.5227 164.132L44.2606 155.817C45.8089 148.482 43.2179 140.452 38.2886 134.54C33.3909 128.628 26.0602 124.55 18.603 124.739C11.1459 124.834 3.94154 129.26 -0.576973 135.489C-5.15868 141.653 -7.33896 149.842 -5.1587 157.082L1.54008 179.434L-10.2776 159.39C-12.205 156.102 -16.0284 153.952 -20.1045 153.383C-24.1807 152.814 -28.5412 153.699 -31.7642 156.133C-35.082 158.599 -37.3887 162.456 -38.3998 166.661C-39.4109 170.866 -39.1897 175.45 -37.7046 179.529L-36.7567 182.121L-39.4109 182.311C-45.3514 182.69 -51.3234 182.817 -56.6003 184.587C-59.2229 185.504 -61.6244 186.863 -63.5202 188.823C-65.3529 190.784 -66.8696 193.376 -67.5016 195.937C-67.786 197.233 -67.786 198.561 -67.312 199.668C-67.0908 200.616 -65.7005 201.153 -64.405 201.628C-61.7191 202.481 -58.7489 202.734 -55.8103 202.829C-49.9015 202.924 -43.9611 202.228 -38.1154 201.059L-38.1786 201.185Z" fill="#2BA7DF" fill-opacity="0.15"/>
</g>
</svg>
